<?xml version="1.0" encoding="utf-8"?>
<!-- Generator: Adobe Illustrator 23.0.1, SVG Export Plug-In . SVG Version: 6.00 Build 0)  -->
<svg version="1.1" id="Vrstva_1" xmlns="http://www.w3.org/2000/svg" xmlns:xlink="http://www.w3.org/1999/xlink" x="0px" y="0px"
	 viewBox="0 0 228.7 39.1" style="enable-background:new 0 0 228.7 39.1;" xml:space="preserve">
<style type="text/css">
	.st0{enable-background:new    ;}
	.st1{fill:#3A3A3A;}
	.st2{fill:#FCB711;}
	.st3{fill:#FFFFFF;}
	.st4{fill:#F37021;}
	.st5{fill:#CC004C;}
	.st6{fill:#0089D0;}
</style>
<g class="st0">
	<path class="st1" d="M105.3,29.7c-0.9-0.5-1.6-1.1-2.1-2c-0.5-0.9-0.8-1.8-0.8-3v-4.4c0-1.1,0.3-2.1,0.8-2.9c0.5-0.8,1.2-1.5,2.1-2
		c0.9-0.5,2-0.7,3.2-0.7s2.3,0.2,3.2,0.7c0.9,0.4,1.6,1.1,2.1,1.9c0.5,0.8,0.8,1.7,0.8,2.8c0,0.1-0.1,0.2-0.4,0.2l-3.3,0.2h-0.1
		c-0.2,0-0.3,0-0.3-0.1v-0.1c0-0.6-0.2-1.1-0.5-1.4c-0.4-0.4-0.8-0.5-1.4-0.5c-0.6,0-1.1,0.2-1.4,0.5c-0.4,0.4-0.5,0.8-0.5,1.4v4.7
		c0,0.6,0.2,1.1,0.5,1.4c0.4,0.4,0.8,0.5,1.4,0.5c0.6,0,1.1-0.2,1.4-0.5c0.4-0.4,0.5-0.8,0.5-1.4c0-0.1,0-0.1,0.1-0.2
		c0.1-0.1,0.2-0.1,0.3-0.1l3.3,0.2c0.3,0,0.4,0.1,0.4,0.1V25c0,1.1-0.3,2-0.8,2.8c-0.5,0.8-1.2,1.4-2.1,1.9c-0.9,0.4-2,0.7-3.2,0.7
		S106.2,30.2,105.3,29.7z"/>
	<path class="st1" d="M118.7,29.7c-0.9-0.5-1.7-1.2-2.2-2.1c-0.5-0.9-0.8-1.9-0.8-3.1v-4.1c0-1.1,0.3-2.2,0.8-3
		c0.5-0.9,1.2-1.6,2.2-2s2-0.7,3.2-0.7c1.2,0,2.3,0.2,3.2,0.7c0.9,0.5,1.7,1.2,2.2,2c0.5,0.9,0.8,1.9,0.8,3v4.1
		c0,1.2-0.3,2.2-0.8,3.1c-0.5,0.9-1.2,1.6-2.2,2.1c-0.9,0.5-2,0.7-3.2,0.7C120.7,30.5,119.6,30.2,118.7,29.7z M123.4,26.3
		c0.4-0.4,0.6-0.9,0.6-1.6v-4.3c0-0.7-0.2-1.2-0.6-1.6c-0.4-0.4-0.9-0.6-1.5-0.6c-0.6,0-1.1,0.2-1.5,0.6c-0.4,0.4-0.6,0.9-0.6,1.6
		v4.3c0,0.7,0.2,1.2,0.6,1.6c0.4,0.4,0.9,0.6,1.5,0.6C122.5,26.9,123,26.7,123.4,26.3z"/>
	<path class="st1" d="M129.6,29.8V15.3c0-0.3,0.1-0.4,0.4-0.4h3.3c0.3,0,0.4,0.1,0.4,0.4v11.2c0,0.1,0.1,0.2,0.2,0.2h6.6
		c0.3,0,0.4,0.1,0.4,0.4v2.7c0,0.3-0.1,0.4-0.4,0.4H130C129.7,30.2,129.6,30.1,129.6,29.8z"/>
	<path class="st1" d="M144.7,29.7c-0.9-0.5-1.7-1.2-2.2-2.1c-0.5-0.9-0.8-1.9-0.8-3.1v-4.1c0-1.1,0.3-2.2,0.8-3
		c0.5-0.9,1.2-1.6,2.2-2s2-0.7,3.2-0.7c1.2,0,2.3,0.2,3.2,0.7c0.9,0.5,1.7,1.2,2.2,2c0.5,0.9,0.8,1.9,0.8,3v4.1
		c0,1.2-0.3,2.2-0.8,3.1c-0.5,0.9-1.2,1.6-2.2,2.1c-0.9,0.5-2,0.7-3.2,0.7C146.7,30.5,145.6,30.2,144.7,29.7z M149.4,26.3
		c0.4-0.4,0.6-0.9,0.6-1.6v-4.3c0-0.7-0.2-1.2-0.6-1.6c-0.4-0.4-0.9-0.6-1.5-0.6c-0.6,0-1.1,0.2-1.5,0.6c-0.4,0.4-0.6,0.9-0.6,1.6
		v4.3c0,0.7,0.2,1.2,0.6,1.6c0.4,0.4,0.9,0.6,1.5,0.6C148.5,26.9,149,26.7,149.4,26.3z"/>
	<path class="st1" d="M163.3,29.9l-2.4-5.5c0-0.1-0.1-0.1-0.2-0.1h-0.8c-0.1,0-0.2,0.1-0.2,0.2v5.3c0,0.3-0.1,0.4-0.4,0.4H156
		c-0.3,0-0.4-0.1-0.4-0.4V15.3c0-0.3,0.1-0.4,0.4-0.4h6.6c1,0,1.9,0.2,2.6,0.6s1.3,1,1.8,1.7c0.4,0.7,0.6,1.6,0.6,2.6
		c0,1-0.2,1.8-0.7,2.5c-0.5,0.7-1.1,1.3-1.9,1.6c-0.1,0-0.1,0.1-0.1,0.2l2.7,5.7c0,0.1,0,0.1,0,0.2c0,0.2-0.1,0.3-0.4,0.3h-3.5
		C163.5,30.2,163.4,30.1,163.3,29.9z M159.7,18.5V21c0,0.1,0.1,0.2,0.2,0.2h2c0.5,0,0.8-0.1,1.1-0.4c0.3-0.3,0.4-0.6,0.4-1
		c0-0.4-0.1-0.8-0.4-1c-0.3-0.3-0.7-0.4-1.1-0.4h-2C159.8,18.4,159.7,18.4,159.7,18.5z"/>
	<path class="st1" d="M171.7,29.8c-0.9-0.4-1.6-1-2.1-1.7s-0.7-1.6-0.7-2.6v-0.2c0-0.3,0.1-0.4,0.4-0.4h3.2c0.3,0,0.4,0.1,0.4,0.2
		v0.2c0,0.4,0.2,0.8,0.6,1.1c0.4,0.3,1,0.5,1.6,0.5c0.5,0,0.9-0.1,1.2-0.3c0.2-0.2,0.4-0.5,0.4-0.8c0-0.3-0.1-0.6-0.4-0.7
		s-0.8-0.4-1.6-0.6l-0.6-0.2c-1.5-0.4-2.7-1-3.6-1.8c-1-0.7-1.5-1.8-1.5-3.2c0-0.9,0.2-1.7,0.7-2.4c0.5-0.7,1.2-1.3,2.1-1.6
		c0.9-0.4,1.8-0.6,2.9-0.6c1.1,0,2.2,0.2,3.1,0.6s1.7,1,2.2,1.8c0.5,0.8,0.8,1.7,0.8,2.7v0.1c0,0.3-0.1,0.4-0.4,0.4H177
		c-0.3,0-0.4-0.1-0.4-0.2v-0.2c0-0.4-0.2-0.8-0.6-1.2c-0.4-0.4-0.9-0.5-1.6-0.5c-0.5,0-0.8,0.1-1.1,0.3c-0.3,0.2-0.4,0.5-0.4,0.8
		c0,0.3,0.1,0.5,0.3,0.7c0.2,0.2,0.5,0.4,0.9,0.5s1,0.4,1.9,0.6c0.1,0,0.6,0.2,1.5,0.5c0.9,0.3,1.7,0.8,2.3,1.5
		c0.6,0.7,0.9,1.6,0.9,2.6c0,1-0.2,1.8-0.7,2.5s-1.2,1.3-2.1,1.7c-0.9,0.4-1.9,0.6-3.1,0.6C173.6,30.4,172.6,30.2,171.7,29.8z"/>
	<path class="st1" d="M187.7,29.4c-1-0.6-1.4-1.5-1.4-2.6v-0.1c0-0.3,0.1-0.4,0.4-0.4h3.1c0.3,0,0.4,0,0.4,0.1v0.1
		c0,0.2,0.1,0.4,0.4,0.6s0.6,0.2,1,0.2c0.3,0,0.6,0,0.8-0.1c0.2-0.1,0.3-0.2,0.3-0.4c0-0.2-0.1-0.3-0.4-0.4
		c-0.2-0.1-0.7-0.2-1.3-0.3c-0.6-0.1-1.1-0.2-1.5-0.3s-0.9-0.3-1.3-0.5c-1.3-0.6-1.9-1.6-1.9-2.9c0-1.2,0.5-2.1,1.4-2.8
		c0.9-0.7,2.1-1,3.6-1c1,0,1.9,0.2,2.7,0.5c0.8,0.3,1.4,0.8,1.8,1.4s0.6,1.3,0.6,2.1c0,0.2-0.1,0.2-0.4,0.2h-3c-0.1,0-0.2,0-0.3,0
		s-0.1-0.1-0.1-0.1v-0.1c0-0.2-0.1-0.4-0.3-0.6c-0.2-0.1-0.5-0.2-0.9-0.2c-0.3,0-0.6,0.1-0.8,0.2c-0.2,0.1-0.3,0.3-0.3,0.5
		c0,0.2,0.1,0.4,0.4,0.5s0.7,0.2,1.3,0.3c0.1,0,0.4,0.1,0.8,0.1s1,0.2,1.4,0.4c0.8,0.3,1.4,0.7,1.8,1.2c0.4,0.5,0.6,1.1,0.6,1.9
		c0,1.2-0.5,2.1-1.4,2.7c-0.9,0.6-2.2,0.9-3.8,0.9C189.9,30.4,188.6,30.1,187.7,29.4z"/>
	<path class="st1" d="M198.3,29.7c-0.5-0.4-0.7-1-0.7-1.6c0-0.4,0.1-0.8,0.4-1.1s0.5-0.6,0.9-0.8s0.8-0.3,1.2-0.3s0.8,0.1,1.2,0.3
		c0.4,0.2,0.7,0.5,0.9,0.8s0.4,0.7,0.4,1.1c0,0.6-0.2,1.2-0.7,1.6c-0.5,0.4-1.1,0.7-1.8,0.7S198.7,30.2,198.3,29.7z"/>
	<path class="st1" d="M211.2,18.9c0.2,0.1,0.3,0.3,0.2,0.5l-0.5,3.2c0,0.2-0.2,0.3-0.5,0.3c-0.2,0-0.4-0.1-0.6-0.1
		c-0.2,0-0.4,0-0.6,0.1c-0.4,0.1-0.7,0.2-1,0.5c-0.3,0.2-0.4,0.6-0.4,1v5.4c0,0.3-0.1,0.4-0.4,0.4H204c-0.3,0-0.4-0.1-0.4-0.4V19.2
		c0-0.3,0.1-0.4,0.4-0.4h3.3c0.3,0,0.4,0.1,0.4,0.4v0.3c0,0.1,0,0.1,0.1,0.2c0,0,0.1,0,0.1,0c0.5-0.7,1.2-1,2.1-1
		C210.5,18.6,210.9,18.7,211.2,18.9z"/>
	<path class="st1" d="M211.8,29.7c-0.5-0.4-0.7-1-0.7-1.6c0-0.4,0.1-0.8,0.4-1.1s0.5-0.6,0.9-0.8c0.4-0.2,0.8-0.3,1.2-0.3
		c0.4,0,0.8,0.1,1.2,0.3s0.7,0.5,0.9,0.8s0.4,0.7,0.4,1.1c0,0.6-0.2,1.2-0.7,1.6c-0.5,0.4-1.1,0.7-1.8,0.7
		C212.8,30.4,212.2,30.2,211.8,29.7z"/>
	<path class="st1" d="M219,29.3c-1-0.7-1.6-1.8-1.9-3c-0.1-0.5-0.2-1.1-0.2-1.8c0-0.7,0.1-1.4,0.3-2c0.4-1.2,1-2.2,1.9-2.9
		c0.9-0.7,2.1-1,3.5-1c1.4,0,2.5,0.3,3.4,1s1.6,1.6,1.9,2.8c0.2,0.6,0.3,1.3,0.3,2c0,0.6-0.1,1.1-0.2,1.7c-0.3,1.3-0.9,2.4-1.9,3.1
		s-2.1,1.2-3.6,1.2C221.1,30.4,220,30,219,29.3z M223.5,26.5c0.2-0.3,0.4-0.6,0.5-1c0.1-0.3,0.1-0.6,0.1-1c0-0.3,0-0.7-0.1-1
		c-0.2-0.9-0.7-1.3-1.4-1.3c-0.7,0-1.2,0.4-1.4,1.3c-0.1,0.2-0.1,0.6-0.1,1c0,0.4,0,0.7,0.1,1c0.2,0.9,0.7,1.4,1.4,1.4
		C222.9,26.9,223.2,26.7,223.5,26.5z"/>
</g>
<path class="st2" d="M13.7,35.9L13.7,35.9C6.1,35.9,0,29.8,0,22.2l0,0C0,14.6,6.1,8.5,13.7,8.5l0,0c7.6,0,13.7,6.1,13.7,13.7l0,0
	C27.4,29.8,21.3,35.9,13.7,35.9z"/>
<g>
	<path class="st3" d="M6.7,29.5V14.9c0-0.3,0.1-0.4,0.4-0.4h3.3c0.2,0,0.4,0.1,0.5,0.3l2.7,4.3c0,0.1,0.1,0.1,0.1,0.1
		c0.1,0,0.1,0,0.1-0.1l2.7-4.3c0.1-0.2,0.3-0.3,0.5-0.3h3.3c0.3,0,0.4,0.1,0.4,0.4v14.6c0,0.3-0.1,0.4-0.4,0.4H17
		c-0.3,0-0.4-0.1-0.4-0.4v-7.8c0-0.1,0-0.1-0.1-0.2c-0.1,0-0.1,0-0.1,0.1L15,23.9c-0.1,0.2-0.3,0.3-0.5,0.3H13
		c-0.2,0-0.4-0.1-0.5-0.3l-1.4-2.3c0-0.1-0.1-0.1-0.1-0.1c-0.1,0-0.1,0.1-0.1,0.2v7.8c0,0.3-0.1,0.4-0.4,0.4H7.1
		C6.8,29.9,6.7,29.8,6.7,29.5z"/>
</g>
<path class="st4" d="M36.1,35.9L36.1,35.9c-7.6,0-13.7-6.1-13.7-13.7l0,0c0-7.6,6.1-13.7,13.7-13.7l0,0c7.6,0,13.7,6.1,13.7,13.7
	l0,0C49.9,29.8,43.7,35.9,36.1,35.9z"/>
<g>
	<path class="st3" d="M39.1,29.6L38.6,28c0-0.1-0.1-0.2-0.2-0.2h-4.6c-0.1,0-0.2,0.1-0.2,0.2l-0.4,1.6C33.1,29.8,33,30,32.7,30h-3.6
		c-0.1,0-0.3,0-0.3-0.1c-0.1-0.1-0.1-0.2,0-0.4l4.6-14.6c0.1-0.2,0.2-0.4,0.5-0.4h4.5c0.2,0,0.4,0.1,0.5,0.4l4.6,14.6
		c0,0,0,0.1,0,0.2c0,0.2-0.1,0.3-0.4,0.3h-3.6C39.3,29.9,39.1,29.8,39.1,29.6z M34.6,24.5c0,0.1,0.1,0.2,0.2,0.2h2.7
		c0.1,0,0.1,0,0.1-0.1v-0.1l-1.4-5.1c0-0.1,0-0.1-0.1-0.1s-0.1,0-0.1,0.1L34.6,24.5L34.6,24.5z"/>
</g>
<path class="st5" d="M59.2,35.9L59.2,35.9c-7.6,0-13.7-6.1-13.7-13.7l0,0c0-7.6,6.1-13.7,13.7-13.7l0,0c7.6,0,13.7,6.1,13.7,13.7
	l0,0C72.9,29.8,66.7,35.9,59.2,35.9z"/>
<g>
	<path class="st3" d="M55.9,29.4c-0.9-0.5-1.7-1.2-2.2-2.1s-0.8-1.9-0.8-3.1v-4.1c0-1.1,0.3-2.2,0.8-3c0.5-0.9,1.2-1.6,2.2-2.1
		c0.9-0.5,2-0.7,3.2-0.7s2.3,0.2,3.3,0.7c0.9,0.5,1.7,1.2,2.2,2.1s0.8,1.9,0.8,3v4.1c0,1.2-0.3,2.2-0.8,3.1s-1.2,1.6-2.2,2.1
		c-0.9,0.5-2,0.7-3.3,0.7C57.9,30.1,56.8,29.9,55.9,29.4z M60.6,26c0.4-0.4,0.6-0.9,0.6-1.6V20c0-0.7-0.2-1.2-0.6-1.6
		c-0.4-0.4-0.9-0.6-1.5-0.6S58,18,57.6,18.4S57,19.3,57,20v4.3c0,0.7,0.2,1.2,0.6,1.6c0.4,0.4,0.9,0.6,1.5,0.6
		C59.8,26.6,60.3,26.4,60.6,26z"/>
</g>
<path class="st6" d="M81.8,35.9L81.8,35.9c-7.6,0-13.7-6.1-13.7-13.7l0,0c0-7.6,6.1-13.7,13.7-13.7l0,0c7.6,0,13.7,6.1,13.7,13.7
	l0,0C95.5,29.8,89.4,35.9,81.8,35.9z"/>
<g>
	<path class="st3" d="M75.4,29.5V14.9c0-0.3,0.1-0.4,0.4-0.4H79c0.2,0,0.4,0.1,0.5,0.3l4.3,7.3c0,0.1,0.1,0.1,0.1,0.1
		c0.1,0,0.1-0.1,0.1-0.2v-7.1c0-0.3,0.1-0.4,0.4-0.4h3.3c0.3,0,0.4,0.1,0.4,0.4v14.6c0,0.3-0.1,0.4-0.4,0.4h-3.2
		c-0.2,0-0.4-0.1-0.5-0.3l-4.4-7.4c0-0.1-0.1-0.1-0.1-0.1c-0.1,0-0.1,0.1-0.1,0.1v7.3c0,0.3-0.1,0.4-0.4,0.4h-3.3
		C75.6,29.9,75.4,29.8,75.4,29.5z"/>
</g>
</svg>
