<?xml version="1.0" encoding="UTF-8" standalone="no"?>
<svg
   xmlns:dc="http://purl.org/dc/elements/1.1/"
   xmlns:cc="http://creativecommons.org/ns#"
   xmlns:rdf="http://www.w3.org/1999/02/22-rdf-syntax-ns#"
   xmlns:svg="http://www.w3.org/2000/svg"
   xmlns="http://www.w3.org/2000/svg"
   xmlns:sodipodi="http://sodipodi.sourceforge.net/DTD/sodipodi-0.dtd"
   xmlns:inkscape="http://www.inkscape.org/namespaces/inkscape"
   enable-background="new 0 0 91.3 62.7"
   viewBox="0 0 91.295728 41.399864"
   version="1.1"
   id="svg6"
   sodipodi:docname="sata-wk.svg"
   width="91.295731"
   height="41.399864"
   inkscape:version="1.0.2 (e86c870879, 2021-01-15)">
  <metadata
     id="metadata12">
    <rdf:RDF>
      <cc:Work
         rdf:about="">
        <dc:format>image/svg+xml</dc:format>
        <dc:type
           rdf:resource="http://purl.org/dc/dcmitype/StillImage" />
        <dc:title></dc:title>
      </cc:Work>
    </rdf:RDF>
  </metadata>
  <defs
     id="defs10" />
  <sodipodi:namedview
     pagecolor="#ffffff"
     bordercolor="#666666"
     borderopacity="1"
     objecttolerance="10"
     gridtolerance="10"
     guidetolerance="10"
     inkscape:pageopacity="0"
     inkscape:pageshadow="2"
     inkscape:window-width="1332"
     inkscape:window-height="705"
     id="namedview8"
     showgrid="false"
     fit-margin-top="0"
     fit-margin-left="0"
     fit-margin-right="0"
     fit-margin-bottom="0"
     inkscape:zoom="5.538162"
     inkscape:cx="24.691789"
     inkscape:cy="19.658256"
     inkscape:window-x="242"
     inkscape:window-y="1124"
     inkscape:window-maximized="0"
     inkscape:current-layer="svg6" />
  <path
     d="m 37.789061,17.543951 h 4.5 l -2.1,-6.8 z m 32.6,0 h 4.5 l -2.1,-6.8 z m 11.8,7.1 h -5.1 l -1.3,-3.9 h -6.3 l -1.3,3.9 h -5.2 l 6.9,-17.4999996 h 6 z m -16.9,-17.4999996 v 3.1999996 h -6.1 l -0.2,14.3 h -5 l 0.1,-14.3 h -6.1 V 7.0439514 Z m -21.9,0 6.4,17.4999996 h -5.1 l -1.3,-3.9 h -6.4 l -1.3,3.9 h -5.2 l 6.8,-17.4999996 z m -15.2,9.2999996 c 0,0 0.3,3.9 -0.2,6.1 -0.5,2.3 -2.5,2.1 -2.5,2.1 h -15 v -3.5 h 12 c 2.2,0 2.6,-3.2 0.4,-3.2 -3.3,0 -7.3,0 -10.3,0 -2.2,0 -2.2,-2.7 -2.2,-2.7 0,0 -0.2,-3.5 0.2,-5.7999996 0.4,-2.3 2.5,-2.3 2.5,-2.3 h 15.2 v 3.6999996 h -12.2 c -2.2,0 -2.3,3.4 -0.2,3.4 h 10.5 c 2,-0.1 1.8,2.2 1.8,2.2 m 63.1,-16.39999958 H -0.01093905 V 31.443951 H 91.289061 Z"
     fill="#e30613"
     id="path2" />
  <path
     d="m 78.689061,39.943951 h 0.7 c 0.1,0 0.2,0 0.3,0.1 0.1,0.1 0.1,0.2 0.1,0.3 0,0.2 -0.1,0.3 -0.4,0.4 -0.2,0.1 -0.5,0.1 -0.8,0.1 -0.3,0 -0.6,0 -0.8,-0.1 -0.2,-0.1 -0.3,-0.2 -0.3,-0.4 0,-0.2 0.1,-0.4 0.4,-0.5 0.2,0.1 0.4,0.1 0.8,0.1 m -0.7,-1.7 c -0.1,-0.1 -0.2,-0.3 -0.2,-0.5 0,-0.2 0.1,-0.4 0.2,-0.6 0.2,-0.1 0.3,-0.2 0.5,-0.2 0.2,0 0.4,0.1 0.5,0.2 0.1,0.1 0.2,0.3 0.2,0.6 0,0.2 -0.1,0.4 -0.2,0.5 -0.1,0.1 -0.3,0.2 -0.6,0.2 -0.1,0 -0.3,0 -0.4,-0.2 m 2.1,-2.2 c -0.2,0 -0.4,0 -0.7,0.2 -0.1,0.1 -0.2,0.2 -0.2,0.5 -0.2,-0.1 -0.4,-0.1 -0.7,-0.1 -0.4,0 -0.7,0.1 -0.9,0.3 -0.2,0.2 -0.4,0.5 -0.4,0.8 0,0.4 0.1,0.7 0.4,0.9 -0.3,0.1 -0.5,0.3 -0.5,0.6 0,0.2 0.1,0.4 0.3,0.6 -0.2,0.1 -0.4,0.3 -0.4,0.6 0,0.3 0.1,0.5 0.4,0.7 0.2,0.2 0.6,0.2 1.2,0.2 1.1,0 1.7,-0.3 1.7,-1 0,-0.2 -0.1,-0.4 -0.2,-0.5 -0.1,-0.1 -0.3,-0.2 -0.5,-0.3 -0.2,0 -0.5,-0.1 -0.9,-0.1 -0.5,0 -0.6,0 -0.9,-0.1 -0.1,0 -0.2,-0.1 -0.2,-0.3 0,-0.1 0,-0.1 0.1,-0.2 0.1,-0.1 0.2,-0.1 0.2,-0.1 0,0 0.1,0 0.2,0 0.1,0 0.1,0 0.2,0 0.4,0 0.7,-0.1 1,-0.3 0.2,-0.2 0.4,-0.5 0.4,-0.8 0,-0.3 -0.1,-0.6 -0.3,-0.8 0,-0.1 0.1,-0.2 0.2,-0.3 0.1,-0.1 0.2,-0.1 0.5,-0.1 z m -4.4,2 c 0,-0.4 0,-0.7 -0.1,-0.9 -0.1,-0.2 -0.2,-0.3 -0.4,-0.4 -0.2,-0.1 -0.4,-0.2 -0.7,-0.2 -0.4,0 -0.8,0.2 -1.1,0.7 v -0.6 h -0.4 v 3.4 h 0.5 v -1.9 c 0,-0.4 0.1,-0.6 0.3,-0.9 0.2,-0.2 0.4,-0.3 0.7,-0.3 0.2,0 0.4,0.1 0.5,0.2 0.1,0.1 0.2,0.4 0.2,0.7 v 2.2 h 0.5 z m -4.8,2 h 0.5 v -3.4 h -0.5 z m 0,-4 h 0.6 v -0.6 h -0.6 z m -2.4,2.2 c 0,-0.4 0.2,-0.6 0.4,-0.9 0.2,-0.2 0.4,-0.3 0.7,-0.3 h 0.1 v -0.5 c -0.1,0 -0.2,0 -0.2,0 -0.2,0 -0.3,0.1 -0.5,0.2 -0.2,0.1 -0.3,0.4 -0.5,0.7 v -0.8 h -0.5 v 3.4 h 0.5 z m -4.3,-0.2 c 0,-0.3 0.1,-0.6 0.3,-0.8 0.2,-0.2 0.4,-0.3 0.7,-0.3 0.2,0 0.4,0.1 0.5,0.2 0.1,0.1 0.2,0.2 0.3,0.4 0.1,0.1 0.1,0.3 0.1,0.5 z m 1,1.7 c -0.2,0 -0.5,-0.1 -0.7,-0.3 -0.2,-0.2 -0.3,-0.5 -0.3,-1 h 2.5 c 0,-0.6 -0.1,-1.1 -0.4,-1.4 -0.3,-0.3 -0.6,-0.5 -1.1,-0.5 -0.5,0 -0.8,0.2 -1.1,0.5 -0.3,0.3 -0.4,0.8 -0.4,1.3 0,0.5 0.1,1 0.4,1.3 0.3,0.3 0.7,0.5 1.1,0.5 0.4,0 0.7,-0.1 0.9,-0.3 0.2,-0.2 0.4,-0.4 0.5,-0.7 l -0.5,-0.1 c -0.1,0.5 -0.4,0.7 -0.9,0.7 m -5.1,-1.7 c 0,-0.3 0.1,-0.6 0.3,-0.8 0.2,-0.2 0.4,-0.3 0.7,-0.3 0.2,0 0.4,0.1 0.5,0.2 0.1,0.1 0.2,0.2 0.3,0.4 0.1,0.1 0.1,0.3 0.1,0.5 z m 1,1.7 c -0.2,0 -0.5,-0.1 -0.7,-0.3 -0.2,-0.2 -0.3,-0.5 -0.3,-1 h 2.5 c 0,-0.6 -0.1,-1.1 -0.4,-1.4 -0.3,-0.3 -0.6,-0.5 -1.1,-0.5 -0.5,0 -0.8,0.2 -1.1,0.5 -0.3,0.3 -0.4,0.8 -0.4,1.3 0,0.5 0.1,1 0.4,1.3 0.3,0.3 0.7,0.5 1.1,0.5 0.4,0 0.7,-0.1 0.9,-0.3 0.3,-0.2 0.4,-0.4 0.5,-0.7 l -0.5,-0.1 c -0.2,0.5 -0.5,0.7 -0.9,0.7 m -2.9,-1.7 c 0,-0.4 0,-0.8 -0.1,-1 -0.1,-0.2 -0.3,-0.3 -0.5,-0.4 -0.2,-0.1 -0.4,-0.1 -0.7,-0.1 -0.4,0 -0.8,0.2 -1.1,0.7 v -0.6 h -0.5 v 3.4 h 0.7 v -1.9 c 0,-0.4 0.1,-0.6 0.3,-0.9 0.2,-0.2 0.4,-0.3 0.7,-0.3 0.2,0 0.4,0.1 0.5,0.2 0.1,0.1 0.2,0.4 0.2,0.7 v 2.2 h 0.5 z m -4.9,2 h 0.5 v -3.4 h -0.5 z m 0,-4 h 0.6 v -0.6 h -0.6 z m -2.6,3.9 h 0.7 c 0.1,0 0.2,0 0.3,0.1 0.1,0.1 0.1,0.2 0.1,0.3 0,0.2 -0.1,0.3 -0.4,0.4 -0.2,0.1 -0.5,0.1 -0.8,0.1 -0.3,0 -0.6,0 -0.8,-0.1 -0.2,-0.1 -0.3,-0.2 -0.3,-0.4 0,-0.2 0.1,-0.4 0.4,-0.5 0.1,0.1 0.4,0.1 0.8,0.1 m -0.8,-1.7 c -0.1,-0.1 -0.2,-0.3 -0.2,-0.5 0,-0.2 0.1,-0.4 0.2,-0.6 0.1,-0.1 0.3,-0.2 0.5,-0.2 0.2,0 0.4,0.1 0.5,0.2 0.1,0.1 0.2,0.3 0.2,0.6 0,0.2 -0.1,0.4 -0.2,0.5 -0.1,0.1 -0.3,0.2 -0.6,0.2 0,0 -0.2,0 -0.4,-0.2 m 2.1,-2.1 c -0.3,0 -0.4,0 -0.6,0.1 -0.2,0.1 -0.2,0.2 -0.2,0.5 -0.2,-0.1 -0.4,-0.1 -0.7,-0.1 -0.4,0 -0.7,0.1 -0.9,0.3 -0.3,0.2 -0.4,0.5 -0.4,0.8 0,0.4 0.1,0.7 0.4,0.9 -0.3,0.1 -0.5,0.3 -0.5,0.6 0,0.2 0.1,0.4 0.3,0.6 -0.2,0.1 -0.4,0.3 -0.4,0.6 0,0.3 0.1,0.5 0.4,0.7 0.2,0.2 0.6,0.2 1.2,0.2 1.1,0 1.7,-0.3 1.7,-1 0,-0.2 -0.1,-0.4 -0.2,-0.5 -0.1,-0.1 -0.2,-0.2 -0.5,-0.3 -0.2,-0.1 -0.5,-0.1 -0.9,-0.1 -0.5,0 -0.7,0 -0.9,-0.1 -0.1,0 -0.2,-0.1 -0.2,-0.3 0,-0.1 0,-0.2 0.1,-0.2 0.1,-0.1 0.2,-0.1 0.2,-0.1 0,0 0.1,0 0.2,0 h 0.2 c 0.4,0 0.7,-0.1 1,-0.3 0.2,-0.2 0.4,-0.5 0.4,-0.8 0,-0.3 -0.1,-0.6 -0.3,-0.8 0,-0.1 0.1,-0.2 0.2,-0.3 0.1,-0.1 0.2,-0.1 0.5,-0.1 v -0.3 z m -4.3,1.9 c 0,-0.4 0,-0.7 -0.1,-0.9 -0.1,-0.2 -0.2,-0.3 -0.4,-0.4 -0.2,-0.1 -0.4,-0.2 -0.7,-0.2 -0.4,0 -0.8,0.2 -1.1,0.7 v -0.6 h -0.4 v 3.4 h 0.5 v -1.9 c 0,-0.4 0.1,-0.6 0.3,-0.9 0.2,-0.2 0.4,-0.3 0.7,-0.3 0.2,0 0.4,0.1 0.5,0.2 0.1,0.1 0.2,0.4 0.2,0.7 v 2.2 h 0.5 z m -6.4,1.5 v -1.7 h 1.9 v -0.5 h -1.9 v -1.5 h 2.3 v -0.5 h -2.9 v 4.6 h 3 v -0.5 h -2.4 z m -4.6,-1.5 c 0,-0.4 0,-0.7 -0.1,-0.9 -0.1,-0.2 -0.1,-0.3 -0.3,-0.4 -0.2,-0.1 -0.4,-0.2 -0.7,-0.2 -0.4,0 -0.8,0.2 -1.1,0.7 v -0.6 h -0.5 v 3.4 h 0.5 v -1.9 c 0,-0.4 0.1,-0.6 0.3,-0.9 0.2,-0.2 0.4,-0.3 0.7,-0.3 0.2,0 0.4,0.1 0.5,0.2 0.1,0.1 0.2,0.4 0.2,0.7 v 2.2 h 0.5 z m -4.7,0.5 c 0,0.3 -0.1,0.6 -0.3,0.8 -0.2,0.2 -0.5,0.3 -0.8,0.3 -0.2,0 -0.4,-0.1 -0.5,-0.2 -0.1,-0.1 -0.2,-0.3 -0.2,-0.4 0,-0.3 0.1,-0.5 0.3,-0.6 0.2,-0.1 0.6,-0.2 1,-0.2 h 0.5 z m 0.5,0.9 v -1.5 c 0,-0.5 -0.1,-0.9 -0.3,-1.1 -0.2,-0.2 -0.5,-0.3 -1,-0.3 -0.9,0 -1.4,0.3 -1.5,0.9 l 0.5,0.1 c 0.1,-0.4 0.4,-0.6 0.9,-0.6 0.2,0 0.4,0 0.5,0.1 0.1,0.1 0.3,0.1 0.3,0.3 0,0.1 0.1,0.3 0.1,0.6 -0.2,0 -0.4,0 -0.5,0 -0.7,0 -1.2,0.1 -1.5,0.3 -0.3,0.2 -0.4,0.5 -0.4,0.9 0,0.3 0.1,0.5 0.3,0.7 0.2,0.2 0.5,0.3 0.9,0.3 0.6,0 1,-0.2 1.2,-0.7 0,0.3 0,0.5 0.1,0.6 h 0.5 c -0.1,-0.2 -0.1,-0.4 -0.1,-0.6 m -4.4,-1.5 c 0,-0.3 0,-0.5 0,-0.6 -0.1,-0.3 -0.1,-0.4 -0.3,-0.6 -0.2,-0.1 -0.4,-0.2 -0.6,-0.2 -0.5,0 -0.8,0.3 -1.1,0.8 0,-0.2 -0.1,-0.4 -0.3,-0.6 -0.2,-0.2 -0.4,-0.2 -0.6,-0.2 -0.4,0 -0.8,0.2 -1.1,0.8 v -0.7 h -0.5 v 3.4 h 0.5 v -2 c 0,-0.3 0.1,-0.5 0.2,-0.7 0.2,-0.2 0.4,-0.3 0.6,-0.3 0.3,0 0.3,0 0.5,0.2 0.1,0.1 0.2,0.3 0.2,0.6 v 2.2 h 0.5 v -1.9 c 0,-0.4 0.1,-0.7 0.3,-0.9 0.2,-0.2 0.4,-0.3 0.6,-0.3 0.1,0 0.3,0 0.4,0.1 0.1,0.1 0.2,0.2 0.2,0.3 0,0.1 0,0.3 0,0.5 v 2.1 h 0.5 z m -6.8,0.3 c 0,-0.4 0.2,-0.6 0.4,-0.9 0.2,-0.2 0.4,-0.3 0.7,-0.3 h 0.1 v -0.5 c -0.1,0 -0.2,0 -0.2,0 -0.2,0 -0.4,0 -0.6,0.2 -0.2,0.2 -0.2,0.4 -0.4,0.7 v -0.8 h -0.5 v 3.4 h 0.5 z m -4.3,-0.2 c 0,-0.3 0.1,-0.6 0.3,-0.8 0.2,-0.2 0.4,-0.3 0.7,-0.3 0.2,0 0.4,0.1 0.5,0.2 0.1,0.1 0.2,0.2 0.3,0.4 0.1,0.1 0.1,0.3 0.1,0.5 z m 1,1.7 c -0.2,0 -0.5,-0.1 -0.7,-0.3 -0.2,-0.2 -0.3,-0.5 -0.3,-1 h 2.5 c 0,-0.6 -0.1,-1.1 -0.4,-1.4 -0.3,-0.3 -0.6,-0.5 -1.1,-0.5 -0.5,0 -0.8,0.2 -1.1,0.5 -0.3,0.3 -0.5,0.8 -0.5,1.3 0,0.5 0.2,1 0.5,1.3 0.3,0.3 0.7,0.5 1.1,0.5 0.4,0 0.8,-0.1 1,-0.3 0.3,-0.2 0.3,-0.4 0.4,-0.7 l -0.5,-0.1 c -0.1,0.5 -0.5,0.7 -0.9,0.7 m -4.6,-2 v 0.5 h 1.1 v 0.3 c 0,0.4 -0.1,0.7 -0.3,0.9 -0.2,0.2 -0.5,0.3 -0.8,0.3 -0.4,0 -0.7,-0.2 -1,-0.5 -0.2,-0.3 -0.5,-0.8 -0.5,-1.4 0,-0.6 0.2,-1 0.4,-1.4 0.2,-0.4 0.6,-0.6 1,-0.6 0.3,0 0.5,0.1 0.7,0.2 0.2,0.2 0.3,0.3 0.4,0.7 l 0.5,-0.1 c -0.3,-0.9 -0.8,-1.3 -1.7,-1.3 -0.6,0 -1.1,0.2 -1.5,0.7 -0.4,0.5 -0.5,1.1 -0.5,1.7 0,0.7 0.2,1.2 0.5,1.7 0.3,0.5 0.8,0.7 1.4,0.7 0.6,0 1.1,-0.2 1.4,-0.6 l 0.1,0.6 h 0.4 v -2.4 z"
     fill="#1d1d1b"
     id="path4" />
</svg>
