<svg id="Livello_1" data-name="Livello 1" xmlns="http://www.w3.org/2000/svg" viewBox="0 0 151.05 23.92"><defs><style>.cls-1{fill:#ec660b;}</style></defs><polygon class="cls-1" points="0 0.03 9.38 23.75 16.33 23.76 20.6 15.47 24.26 23.77 31.3 23.75 40.03 0.05 29.52 0.04 26.7 7.87 24.15 0.05 16.46 0.04 13.62 7.98 10.85 0.04 0 0.03 0 0.03"/><polygon class="cls-1" points="60.51 0 60.51 23.75 70.45 23.75 70.45 0 60.51 0 60.51 0"/><path class="cls-1" d="M91.09,4.51l-.33,8.31s-8-2.89-8,1.13,8.09.14,8.09.14L91.45,23S72.55,28,73.18,13.38C73.75.14,91.09,4.51,91.09,4.51Z"/><path class="cls-1" d="M116.89,4l0,19.75,8.86,0V12s-.11-2.59,2.07-2.58c1.78.07,1.75,2.81,1.75,2.81V23.76l8.63,0V12.57s0-2.78,2.13-2.77,1.89,2.66,1.89,2.66V23.73h8.83V9.54s-1-5.06-6.11-5.11c-5.53,0-6.83,3.31-6.83,3.31s-.25-2.94-5.36-3.52a7,7,0,0,0-7.11,3.43V4Z"/><path class="cls-1" d="M103.78,3.64a10.27,10.27,0,0,0-10.4,10.14,10.4,10.4,0,0,0,20.8,0,10.27,10.27,0,0,0-10.4-10.14Zm0,13.37a3.12,3.12,0,0,1-3-3.23,3,3,0,1,1,6,0,3.13,3.13,0,0,1-3,3.23Z"/><path class="cls-1" d="M57.48,9.7C52.63-.1,40.83,6,40.83,6V11.4a7.49,7.49,0,0,1,4.66-1.18c2.43.35,2.82,3.92,2.82,3.92s-3.52-2.42-6.84-.16c-3.62,2.48-2,6.63-2,6.63s1.94,3.85,6,3.05a4.68,4.68,0,0,0,3.24-2.09l-.14,2.21,8.84,0V9.7ZM46.94,20.15a1.81,1.81,0,1,1,1.85-1.81,1.83,1.83,0,0,1-1.85,1.81Z"/></svg>